<?xml version="1.0" encoding="UTF-8" standalone="no"?>
<!-- Generator: Adobe Illustrator 17.0.1, SVG Export Plug-In . SVG Version: 6.00 Build 0)  -->

<svg
   xmlns:dc="http://purl.org/dc/elements/1.1/"
   xmlns:cc="http://creativecommons.org/ns#"
   xmlns:rdf="http://www.w3.org/1999/02/22-rdf-syntax-ns#"
   xmlns:svg="http://www.w3.org/2000/svg"
   xmlns="http://www.w3.org/2000/svg"
   xmlns:xlink="http://www.w3.org/1999/xlink"
   xmlns:sodipodi="http://sodipodi.sourceforge.net/DTD/sodipodi-0.dtd"
   xmlns:inkscape="http://www.inkscape.org/namespaces/inkscape"
   version="1.1"
   x="0px"
   y="0px"
   width="86px"
   height="86px"
   viewBox="0 0 86 86"
   enable-background="new 0 0 86 86"
   xml:space="preserve"
   id="svg3088"
   inkscape:version="0.48.3.1 r9886"
   sodipodi:docname="score-board.svg"><metadata
   id="metadata3113"><rdf:RDF><cc:Work
       rdf:about=""><dc:format>image/svg+xml</dc:format><dc:type
         rdf:resource="http://purl.org/dc/dcmitype/StillImage" /><dc:title></dc:title></cc:Work></rdf:RDF></metadata><defs
   id="defs3111"><linearGradient
   id="linearGradient3975"><stop
     style="stop-color:#4a5885;stop-opacity:1;"
     offset="0"
     id="stop3977" /><stop
     style="stop-color:#4a5885;stop-opacity:0;"
     offset="1"
     id="stop3979" /></linearGradient><linearGradient
   id="linearGradient3925"
   gradientUnits="userSpaceOnUse"
   x1="0.7169"
   y1="85.2831"
   x2="85.2831"
   y2="0.7169">
		<stop
   offset="0"
   style="stop-color:#f4e9e7;stop-opacity:1;"
   id="stop3927" />
		<stop
   offset="1"
   style="stop-color:#35271b;stop-opacity:1;"
   id="stop3929" />
	</linearGradient>
	<linearGradient
   y2="0.7169"
   x2="85.2831"
   y1="85.2831"
   x1="0.7169"
   gradientUnits="userSpaceOnUse"
   id="SVGID_1_">
		<stop
   id="stop3093"
   style="stop-color:#eb6a42;stop-opacity:1;"
   offset="0" />
		<stop
   id="stop3095"
   style="stop-color:#502500;stop-opacity:1;"
   offset="1" />
	</linearGradient>
	
	
	
	
	
<linearGradient
   inkscape:collect="always"
   xlink:href="#linearGradient3925"
   id="linearGradient3933"
   gradientUnits="userSpaceOnUse"
   x1="29.685322"
   y1="48.167301"
   x2="41.377831"
   y2="-9.2409945" /><linearGradient
   inkscape:collect="always"
   xlink:href="#SVGID_1_"
   id="linearGradient3943"
   gradientUnits="userSpaceOnUse"
   x1="30.590586"
   y1="78.946251"
   x2="44.546253"
   y2="-3.3567843" /><linearGradient
   inkscape:collect="always"
   xlink:href="#linearGradient3975"
   id="linearGradient3981"
   x1="22.314959"
   y1="70.72197"
   x2="45.911633"
   y2="7.0302577"
   gradientUnits="userSpaceOnUse" /></defs><sodipodi:namedview
   pagecolor="#ffffff"
   bordercolor="#666666"
   borderopacity="1"
   objecttolerance="10"
   gridtolerance="10"
   guidetolerance="10"
   inkscape:pageopacity="0"
   inkscape:pageshadow="2"
   inkscape:window-width="863"
   inkscape:window-height="574"
   id="namedview3109"
   showgrid="false"
   inkscape:zoom="2.2093023"
   inkscape:cx="29.201826"
   inkscape:cy="43.252763"
   inkscape:window-x="119"
   inkscape:window-y="355"
   inkscape:window-maximized="0"
   inkscape:current-layer="svg3088"
   showguides="true"
   inkscape:guide-bbox="true" />
<g
   id="Layer_2"
   display="none">
</g>

<path
   style="fill:url(#linearGradient3933);fill-opacity:1"
   d="M 6.3125,21.4375 C 6.2074742,37.649563 3.8454994,57.067296 16.875,69.3125 32.829562,85.607114 63.263721,81.655171 74.71875,61.625 80.99032,50.658584 79.722527,36.264517 79.6875,16 c 0.107937,-4.979209 -3.376625,-9.7606549 -9,-9.6875 -18.791667,0 -45.583333,0 -64.375,0 0,5.041667 0,10.083333 0,15.125 z"
   id="path3145"
   inkscape:connector-curvature="0"
   sodipodi:nodetypes="ccscccc" /><path
   id="path3972"
   style="fill:none;stroke:url(#linearGradient3981);stroke-width:0.49999997;stroke-linecap:butt;stroke-linejoin:miter;stroke-miterlimit:4;stroke-opacity:1;stroke-dasharray:none"
   d="m 63.959079,74.391611 -45.610323,0 m 61.879237,-20 -74.9462133,0 m 74.9462133,-20 -74.9462133,0 m 74.9462133,-20 -74.9462133,0 m 69.6550623,-8.0547689 0,61.5578949 m -20,-61.5578949 0,74.3602489 m -20,-74.3602489 0,74.3602489 m -20,-74.3602489 0,61.5578949"
   inkscape:connector-curvature="0"
   sodipodi:nodetypes="cccccccccccccccc" /><path
   style="color:#000000;fill:#8c1919;fill-opacity:1;fill-rule:nonzero;stroke:none;stroke-width:0.5;marker:none;visibility:visible;display:inline;overflow:visible;enable-background:accumulate"
   id="path3987"
   d="m 17.653758,37.895951 c 0.85567,-0.775542 1.893802,-1.475689 3.046107,-1.638653 0.295173,-0.03248 0.592601,-0.03103 0.889136,-0.03111 0.270728,-0.02818 0.524872,0.06286 0.788468,0.105171 0.246311,0.08425 0.497124,0.175133 0.721249,0.308947 0.188957,0.11941 0.387606,0.22565 0.556672,0.373844 0.214955,0.144549 0.377747,0.35424 0.533867,0.557992 0.158505,0.167285 0.290974,0.364016 0.392629,0.570828 0.109759,0.240813 0.101226,0.506975 0.141488,0.762416 0.06066,0.247315 0.102296,0.49754 0.111333,0.752071 -0.0213,0.224019 -0.07883,0.439498 -0.06809,0.665502 0.0054,0.237717 -0.06283,0.460804 -0.148787,0.679407 -0.07887,0.259857 -0.206809,0.495914 -0.367568,0.713637 -0.151035,0.20803 -0.336488,0.391741 -0.526467,0.564623 -0.87865,0.738941 -1.717176,1.08254 -2.852883,1.724375 -0.263834,0.05846 -0.51772,0.05001 -0.777821,-0.01156 -0.244954,-0.05896 -0.496941,-0.07215 -0.747691,-0.08168 -1.247401,-0.0465 -1.154039,0.488526 1.735975,-1.576916 0.213792,0.01446 0.428495,0.01269 0.642701,0.01382 0.286916,0.001 0.573835,8.45e-4 0.860752,7.56e-4 0.321152,0.03861 0.611101,0.169502 0.880593,0.34322 0.261142,0.143567 0.483013,0.346447 0.684675,0.563383 0.163827,0.199208 0.301295,0.414197 0.446523,0.62623 0.146292,0.19803 0.267367,0.393195 0.337015,0.631423 0.05084,0.238284 0.125881,0.468439 0.165541,0.709407 0.0164,0.275646 0.07432,0.544797 0.119769,0.816413 0.0458,0.287894 0.05649,0.579466 0.0632,0.870385 0.0046,0.285572 0.0036,0.571195 0.0033,0.856792 0.01732,0.287682 -0.04742,0.560852 -0.145854,0.827957 -0.06841,0.226233 -0.205567,0.41594 -0.34211,0.604908 -0.1445,0.242255 -0.329513,0.456056 -0.506027,0.675068 -0.157482,0.217883 -0.322645,0.428341 -0.533832,0.596354 -0.165697,0.155385 -0.351123,0.281946 -0.533775,0.414556 -0.03351,0.02075 -0.06702,0.0415 -0.100527,0.06226 -0.7927,0.459487 -1.594892,0.902977 -2.3781,1.378463 -0.708829,0.43033 2.888126,-1.630287 2.154911,-1.242966 -0.812914,0.429423 -1.589579,0.924503 -2.394157,1.369348 -0.725654,0.401209 1.437219,-0.827392 2.157355,-1.238421 0.03722,-0.02124 -0.07232,0.046 -0.108481,0.069 -0.645773,0.274987 -1.665152,1.281635 -2.64609,1.418243 -0.135813,0.01892 -0.253514,0.01707 -0.383574,0.06318 -0.240689,0.08022 -0.495298,0.09215 -0.746627,0.102526 -0.280587,0.0081 -0.561337,0.0067 -0.842009,0.0063 -0.294936,0.01474 -0.578531,-0.0031 -0.867113,-0.05957 -0.279941,-0.07944 -0.577888,-0.125536 -0.850739,-0.228408 -0.253322,-0.05746 -0.445909,-0.186193 -0.617662,-0.377334 -0.155292,-0.148029 -0.294654,-0.312647 -0.451111,-0.459828 -0.189186,-0.176847 -0.324537,-0.362724 -0.406666,-0.609754 -0.04181,-0.128319 -0.04446,-0.256955 -0.03761,-0.389681 0,0 2.385487,-1.179605 2.385487,-1.179605 l 0,0 c -0.02117,0.101229 -0.05169,0.188516 -0.0166,0.291611 0.05851,0.20788 0.186543,0.347388 0.340423,0.495765 0.153729,0.155166 0.309931,0.30713 0.461154,0.46469 0.154074,0.148123 0.331779,0.217733 0.537195,0.273919 0.272261,0.07435 0.544354,0.154596 0.823621,0.197665 0.279305,0.0376 0.561145,0.01989 0.842361,0.02335 0.278088,-0.0011 0.556595,-0.0013 0.833997,-0.02327 0.246286,-0.0249 0.48657,-0.07352 0.725594,-0.137805 0.999528,-0.115551 2.390033,-1.236237 -1.560074,1.083346 0.851359,-0.482118 1.344535,-0.760901 2.494188,-1.444354 0.710814,-0.422569 -2.863956,1.654962 -2.147762,1.241575 7.959038,-4.593956 -1.462941,0.847107 0.316284,-0.186952 0.200377,-0.107074 0.378602,-0.238827 0.556235,-0.379242 0.233961,-0.220457 -0.05001,0.03518 0.202941,-0.155839 0.109274,-0.08252 0.181507,-0.182064 0.266384,-0.285979 0.02969,-0.03634 0.06411,-0.06854 0.09616,-0.102803 0.152147,-0.230338 0.345986,-0.428733 0.503517,-0.653048 0.106492,-0.197829 0.259198,-0.356741 0.367783,-0.552048 0.08239,-0.24848 0.218315,-0.477974 0.190756,-0.751026 4.21e-4,-0.284071 0.0014,-0.568151 -8.45e-4,-0.852218 -0.0037,-0.279593 -0.0086,-0.559961 -0.04597,-0.837515 -0.04131,-0.272328 -0.116115,-0.538502 -0.126819,-0.814644 -0.03261,-0.232801 -0.106726,-0.452493 -0.153612,-0.681574 -0.05253,-0.213873 -0.171502,-0.377714 -0.294124,-0.557853 -0.131566,-0.203959 -0.268835,-0.399601 -0.419382,-0.590532 -0.189551,-0.19974 -0.398361,-0.372958 -0.641826,-0.504348 -0.248941,-0.137821 -0.511151,-0.232942 -0.800223,-0.224232 -0.287519,-9.7e-5 -0.575039,-3.38e-4 -0.862558,3.15e-4 -0.225375,8.45e-4 -0.451137,-9.78e-4 -0.67618,0.0124 2.114799,-1.55199 1.325648,-1.625389 2.594841,-1.553618 0.25967,0.01797 0.517243,0.05017 0.772209,0.103654 0.23342,0.02545 0.473795,-0.01074 0.686122,-0.113499 -0.72622,0.419675 -1.454807,0.83528 -2.178659,1.259024 -0.03198,0.01872 0.06988,-0.02558 0.102316,-0.04353 0.141709,-0.07841 0.245194,-0.219156 0.37866,-0.309912 0.216877,-0.130975 0.367355,-0.321431 0.554748,-0.487647 0.144357,-0.210266 0.337668,-0.398156 0.398576,-0.654369 0.07306,-0.194648 0.170985,-0.379802 0.172567,-0.59232 0.02689,-0.211509 -0.0029,0.07177 -0.0012,-0.217175 8.9e-4,-0.154945 0.0467,-0.309157 0.07386,-0.460404 0.04769,-0.230746 -0.03436,-0.468679 -0.07925,-0.695082 -0.04629,-0.230951 -0.02645,-0.473071 -0.111223,-0.696664 -0.09147,-0.192337 -0.220398,-0.366785 -0.360295,-0.526529 -0.146444,-0.1889 -0.301019,-0.37063 -0.503846,-0.501785 -0.16951,-0.121456 -0.349828,-0.229863 -0.53044,-0.333617 -0.215908,-0.101324 -0.432701,-0.206343 -0.671394,-0.240839 -0.250191,-0.04921 -0.49641,-0.09363 -0.753423,-0.07009 -0.286848,0.0042 -0.575997,0.0089 -0.85747,0.07063 -0.118573,0.03154 -0.162694,0.03885 -0.276178,0.0868 -0.04448,0.01879 -0.172032,0.08754 -0.130393,0.06309 3.664362,-2.151224 2.722267,-1.574058 1.942228,-1.132851 0,0 -2.472252,1.02404 -2.472252,1.02404 z"
   inkscape:connector-curvature="0" /><path
   style="color:#000000;fill:#8c1919;fill-opacity:1;fill-rule:nonzero;stroke:none;stroke-width:0.5;marker:none;visibility:visible;display:inline;overflow:visible;enable-background:accumulate"
   id="path3993"
   d="m 32.703182,37.094916 c -0.289408,0.06395 -0.568983,0.16036 -0.851347,0.251906 -0.156313,0.04292 -0.175641,0.0377 -0.313401,0.113961 -0.0436,0.02414 -0.168858,0.105865 -0.125532,0.08123 3.857833,-2.193463 2.45171,-1.561134 1.829073,-1.001493 -0.780934,0.702599 -1.734266,1.092665 -2.662576,1.629604 -0.689222,0.398649 1.379132,-0.796106 2.068697,-1.19416 -0.199345,0.127561 -0.380365,0.286571 -0.542576,0.458684 -0.201138,0.152198 -0.356538,0.337604 -0.507483,0.53649 -0.132047,0.206344 -0.231469,0.430782 -0.351812,0.644163 -0.128726,0.222767 -0.298596,0.418974 -0.421929,0.644449 -0.08315,0.215618 -0.204622,0.40963 -0.336564,0.598012 -0.158406,0.190509 -0.247994,0.422437 -0.347573,0.646291 -0.08061,0.252868 -0.169832,0.501974 -0.271054,0.747372 -0.129804,0.231989 -0.25335,0.461265 -0.343274,0.711766 -0.09643,0.294447 -0.157321,0.599081 -0.230468,0.89998 -0.06522,0.266924 -0.08376,0.541078 -0.0944,0.814624 -0.01465,0.241604 -0.07917,0.475761 -0.109606,0.715719 -0.02751,0.260897 -0.02952,0.523541 -0.03179,0.785601 -0.0013,0.273561 -5.98e-4,0.547127 -2.69e-4,0.820689 0.03116,0.233274 0.08229,0.462551 0.108595,0.696836 0.05117,0.265189 0.105467,0.528607 0.135578,0.797318 0.03805,0.196512 0.160647,0.375258 0.284208,0.530035 0.134257,0.186985 0.248124,0.384892 0.348065,0.592051 0.125846,0.187748 0.255379,0.3755 0.355886,0.578326 0.0978,0.189999 0.165474,0.410866 0.338959,0.546362 0.133918,0.147629 0.309504,0.237352 0.466768,0.353109 0.140035,0.167744 0.295267,0.293708 0.504122,0.359529 0.206292,0.100442 0.41773,0.176419 0.614344,0.296919 0.214993,0.08564 0.430036,0.178366 0.652712,0.244325 0.189096,0.123173 0.399793,0.162498 0.619917,0.183783 0.259197,0.01798 0.519246,0.01626 0.778915,0.0162 0.273902,-6.42e-4 0.547805,-0.0014 0.821708,-0.0018 0.243564,0.0056 0.472995,-0.09578 0.700102,-0.172025 0.0421,-0.01069 0.0859,-0.01613 0.126308,-0.03207 0.07323,-0.02889 0.279381,-0.145029 0.211171,-0.105732 -3.607507,2.078332 -2.663772,1.529876 -1.912475,1.081968 0.229984,-0.149765 0.435246,-0.333173 0.651397,-0.5014 0.236109,-0.121727 0.396615,-0.32389 0.564738,-0.521849 0.174428,-0.188372 0.335436,-0.389928 0.493428,-0.592513 0.177941,-0.218023 0.296598,-0.470692 0.410264,-0.725565 0.107729,-0.266828 0.193218,-0.541578 0.288871,-0.812726 0.09109,-0.261695 0.163097,-0.530792 0.265638,-0.788268 0.114938,-0.242542 0.136546,-0.507968 0.170025,-0.76997 0.05505,-0.288004 0.09539,-0.577716 0.116984,-0.870075 0.01768,-0.278854 0.01469,-0.55837 0.02046,-0.837574 0.0027,-0.308288 -3.81e-4,-0.61659 -0.0019,-0.924876 -0.0309,-0.238383 -0.08316,-0.4726 -0.110029,-0.711833 -0.05768,-0.22564 -0.109151,-0.450716 -0.137202,-0.682203 -0.0027,-0.225176 -0.03486,-0.432185 -0.130147,-0.635491 -0.0797,-0.192201 -0.143763,-0.392238 -0.238281,-0.578012 -0.106623,-0.218088 -0.196744,-0.443688 -0.260715,-0.677919 -0.06388,-0.27751 -0.187675,-0.530154 -0.322766,-0.778637 -0.12639,-0.252183 -0.29728,-0.478483 -0.451621,-0.713744 -0.153856,-0.193436 -0.297955,-0.399493 -0.407977,-0.621309 -0.110338,-0.164757 -0.170821,-0.35594 -0.290952,-0.514258 -0.09103,-0.148494 -0.205625,-0.279868 -0.335549,-0.395352 0,0 2.177226,-1.341431 2.177226,-1.341431 l 0,0 c 0.133196,0.134302 0.263661,0.273331 0.364884,0.434045 0.120478,0.175717 0.199527,0.371685 0.30842,0.554206 0.100784,0.213808 0.240383,0.409041 0.379978,0.598878 0.159043,0.24023 0.335501,0.470497 0.457545,0.733397 0.147974,0.264721 0.284679,0.534386 0.362986,0.828956 0.05371,0.219167 0.144896,0.42288 0.243474,0.625196 0.09459,0.188484 0.165267,0.388314 0.241549,0.58455 0.107294,0.22813 0.168827,0.458167 0.163129,0.713052 0.02341,0.232999 0.07154,0.459396 0.137683,0.684113 0.02351,0.248997 0.07443,0.492301 0.114666,0.738802 -10e-4,0.30887 -0.0031,0.617754 -2.43e-4,0.926619 0.0052,0.283295 0.0025,0.566805 -0.0091,0.849928 -0.01693,0.300082 -0.04758,0.599189 -0.111411,0.8934 -0.05226,0.271905 -0.02555,0.556983 -0.133362,0.818478 -0.108085,0.254037 -0.206072,0.510824 -0.279541,0.778107 -0.09281,0.276344 -0.190325,0.550461 -0.282319,0.826922 -0.104787,0.272001 -0.220481,0.538568 -0.379771,0.783675 -0.157417,0.212366 -0.326837,0.410836 -0.484441,0.622142 -0.198416,0.177107 -0.314291,0.42386 -0.536547,0.576247 -0.245831,0.120958 -0.437156,0.322221 -0.649795,0.492124 -0.85517,0.645391 -1.790567,1.24341 -2.820234,1.552226 -0.241981,0.07737 -0.490041,0.120816 -0.744996,0.105359 -0.274266,5.56e-4 -0.548533,0.0017 -0.822799,8.55e-4 -0.268414,-0.0021 -0.538114,-0.0027 -0.804298,-0.04161 -0.228421,-0.04261 -0.439643,-0.120631 -0.648689,-0.221326 -0.228819,-0.08703 -0.46232,-0.166145 -0.678264,-0.282376 -0.195994,-0.0969 -0.396988,-0.181358 -0.595599,-0.272685 -0.206858,-0.100542 -0.379267,-0.238938 -0.541476,-0.401297 -0.17517,-0.111596 -0.337135,-0.240514 -0.48475,-0.387058 -0.172419,-0.18161 -0.275997,-0.403879 -0.385281,-0.626986 -0.09711,-0.203133 -0.230119,-0.387833 -0.351527,-0.576866 -0.09936,-0.188892 -0.198236,-0.377906 -0.325009,-0.550465 -0.147308,-0.199111 -0.299662,-0.409371 -0.345439,-0.657418 -0.0238,-0.268769 -0.06855,-0.533683 -0.139338,-0.794392 -0.0232,-0.243718 -0.07269,-0.481704 -0.116325,-0.722267 -2.83e-4,-0.273996 -8.55e-4,-0.547991 -8.12e-4,-0.821987 5.56e-4,-0.268543 4.11e-4,-0.537335 0.01677,-0.805488 0.01864,-0.237766 0.05051,-0.473466 0.122124,-0.70192 0.0068,-0.288532 0.01814,-0.578261 0.07652,-0.861863 0.06879,-0.308636 0.153003,-0.612892 0.220946,-0.92172 0.08081,-0.262429 0.159238,-0.517051 0.319357,-0.744664 0.139776,-0.214981 0.214004,-0.471968 0.278778,-0.718328 0.03932,-0.121687 0.09748,-0.219715 0.14801,-0.334995 0.05561,-0.126856 0.08064,-0.26805 0.173112,-0.378005 0.137677,-0.170614 0.257878,-0.349047 0.359826,-0.541803 0.08675,-0.257908 0.252035,-0.458274 0.408647,-0.676969 0.134941,-0.208709 0.251819,-0.424402 0.344622,-0.655392 0.131491,-0.217419 0.274555,-0.43418 0.479872,-0.589489 0.191642,-0.151581 0.343799,-0.350102 0.534373,-0.504951 0.76413,-0.44514 1.544365,-0.863719 2.292391,-1.335418 0.677718,-0.427364 -1.387548,0.801546 -2.081322,1.202319 0.03441,-0.01429 0.07036,-0.02531 0.103224,-0.04287 0.112743,-0.06024 0.180012,-0.168345 0.297824,-0.221011 0.03502,-0.03121 0.07191,-0.06044 0.105069,-0.09363 0.03658,-0.03661 0.05955,-0.08862 0.103811,-0.11543 1.040437,-0.63015 1.72231,-1.197338 2.758018,-1.496456 0.303621,-0.09826 0.614185,-0.202965 0.935422,-0.215047 0,0 -2.083239,1.513562 -2.083239,1.513562 z"
   inkscape:connector-curvature="0" /><path
   style="color:#000000;fill:#8c1919;fill-opacity:1;fill-rule:nonzero;stroke:none;stroke-width:0.5;marker:none;visibility:visible;display:inline;overflow:visible;enable-background:accumulate"
   id="path3995"
   d="m 58.780306,35.97748 c -0.02316,0.347665 -0.01857,0.696597 -0.01816,1.044856 9.39e-4,0.355085 0.0019,0.710169 0.0023,1.065253 3.89e-4,0.341745 4.1e-4,0.683489 4.33e-4,1.025234 0.01619,0.352506 -0.0079,0.698869 -0.06583,1.046237 -0.04673,0.344406 -0.09253,0.686742 -0.162906,1.02727 -0.07066,0.328614 -0.09255,0.664041 -0.105505,0.999001 -0.0096,0.339353 -0.0084,0.678888 -0.0081,1.018341 0.0249,0.352795 -0.03652,0.69776 -0.09133,1.044201 -0.03902,0.345126 -0.133964,0.679523 -0.189356,1.021925 -0.01993,0.306317 -0.113775,0.598659 -0.169096,0.898839 -0.04996,0.3167 -0.05491,0.637988 -0.05976,0.957858 0.02969,0.378822 -0.04345,0.728565 -0.176,1.080525 -0.159087,0.309551 -0.242723,0.640827 -0.308125,0.979819 -0.09475,0.275754 -0.12528,0.567249 -0.204138,0.846464 -0.0702,0.27091 -0.185034,0.526619 -0.297584,0.782167 -0.0895,0.266184 -0.275869,0.478603 -0.408027,0.721224 -0.08688,0.188108 -0.15772,0.381743 -0.222268,0.57839 0,0 -2.888933,1.330632 -2.888933,1.330632 l 0,0 c 0.09663,-0.183489 0.123965,-0.387594 0.218968,-0.573081 0.08355,-0.279153 0.252373,-0.486276 0.413308,-0.723796 0.09526,-0.255208 0.219308,-0.49869 0.304003,-0.754074 0.0274,-0.08271 0.06927,-0.160796 0.08986,-0.24546 0.04755,-0.195512 0.03635,-0.40817 0.125254,-0.595083 0.121611,-0.333408 0.110337,-0.712006 0.299402,-1.026521 0.155538,-0.308575 0.261541,-0.612192 0.225084,-0.963231 0.0016,-0.331723 0.0023,-0.664142 0.0339,-0.994673 0.03714,-0.307445 0.134177,-0.596456 0.177629,-0.899867 0.04284,-0.346536 0.134298,-0.680778 0.188473,-1.023869 0.04675,-0.334016 0.138324,-0.661825 0.111834,-1.001594 -5.25e-4,-0.342485 -0.0019,-0.685002 0.0035,-1.027458 0.0083,-0.350089 0.02124,-0.701304 0.08326,-1.046801 0.06549,-0.339297 0.144372,-0.672043 0.166795,-1.01838 0.0565,-0.333037 0.120439,-0.657851 0.08858,-0.998521 2.2e-5,-0.341891 4.4e-5,-0.683783 4.32e-4,-1.025675 4.83e-4,-0.355882 0.0014,-0.711764 0.0023,-1.067646 4e-4,-0.342075 0.0055,-0.684909 -0.01816,-1.026347 0,0 2.857873,-1.456159 2.857873,-1.456159 z"
   inkscape:connector-curvature="0" /><path
   style="color:#000000;fill:#8c1919;fill-opacity:1;fill-rule:nonzero;stroke:none;stroke-width:0.5;marker:none;visibility:visible;display:inline;overflow:visible;enable-background:accumulate"
   id="path3997"
   d="m 66.551943,37.539708 c -0.285058,-0.07256 -0.52613,-0.242556 -0.807387,-0.330609 -0.276249,-0.07118 -0.562902,-0.07516 -0.846346,-0.07977 -0.112695,0.05113 -0.24762,0.04745 -0.361486,0.09132 -0.07029,0.02707 -0.131325,0.07423 -0.199944,0.105299 0.764023,-0.434175 1.528045,-0.868352 2.292069,-1.302528 -1.571389,0.929069 -4.985463,2.849819 -0.280608,0.163619 0.03166,-0.01808 -0.05929,0.04264 -0.09092,0.06076 -0.825627,0.472958 -1.642524,0.961833 -2.480613,1.412339 -0.773704,0.415897 1.524931,-0.872318 2.287396,-1.308479 -0.191073,0.123757 -0.366929,0.283208 -0.540038,0.434122 -0.171667,0.146602 -0.345714,0.285164 -0.53986,0.401506 -0.207047,0.16416 -0.388155,0.357821 -0.587899,0.530663 -0.17318,0.163169 -0.266582,0.390158 -0.382397,0.594879 -0.101995,0.228703 -0.191001,0.466144 -0.266344,0.705415 -0.06147,0.273866 -0.138689,0.54315 -0.184991,0.820207 -0.05188,0.262955 -0.03986,0.517857 0.0086,0.778526 0.09498,0.225932 0.161321,0.456977 0.199746,0.698853 0.01295,0.27305 0.05194,0.532436 0.15069,0.78727 0.108949,0.250146 0.170946,0.523539 0.308225,0.759912 0.117548,0.212397 0.294406,0.38071 0.44645,0.567816 0.178586,0.226391 0.421803,0.390571 0.672688,0.527365 0.258214,0.08947 0.504185,0.207979 0.773428,0.262495 0.269138,0.04081 0.542264,0.04011 0.813812,0.0419 0.291562,-0.01323 0.589565,0.03192 0.875607,-0.03242 0.131221,-0.02208 0.2714,-0.07259 0.385699,-0.142948 0.03486,-0.02146 0.129037,-0.09986 0.09341,-0.07972 -4.994562,2.824561 -2.920912,1.672143 -2.174332,1.257481 0.183003,-0.153191 0.386248,-0.275085 0.579035,-0.415448 0.114544,-0.106522 0.05678,-0.05644 0.172829,-0.150767 0,0 2.561922,-1.062491 2.561922,-1.062491 l 0,0 c -0.101062,0.123968 -0.04412,0.06964 -0.170136,0.163677 -0.16186,0.182975 -0.359979,0.310272 -0.569725,0.429964 -0.766917,0.849477 -1.943111,1.469304 -3.091686,1.649467 -0.29965,0.0095 -0.599572,0.0057 -0.899325,0.0027 -0.287288,-0.0073 -0.577413,-0.01646 -0.856468,-0.09232 -0.277127,-0.08646 -0.546857,-0.202659 -0.806224,-0.332045 -0.270029,-0.168053 -0.531971,-0.351568 -0.734818,-0.600413 -0.168334,-0.194478 -0.344144,-0.38626 -0.465885,-0.614815 -0.139867,-0.25124 -0.222936,-0.52802 -0.331822,-0.793403 -0.104593,-0.271964 -0.177952,-0.547791 -0.180479,-0.841554 -0.03136,-0.239978 -0.09704,-0.46575 -0.19587,-0.687191 -0.05623,-0.288303 -0.09386,-0.569601 -0.04284,-0.863464 0.03426,-0.286913 0.105874,-0.562823 0.164992,-0.843887 0.05397,-0.26483 0.172324,-0.500319 0.242212,-0.760143 0.10369,-0.232132 0.240803,-0.445246 0.34611,-0.675627 0.175554,-0.200245 0.4027,-0.345 0.569596,-0.555053 0.16172,-0.168056 0.390993,-0.231059 0.542271,-0.410194 0.334368,-0.221988 -0.138593,0.101507 0.189377,-0.155771 0.119139,-0.09346 0.260212,-0.163301 0.334585,-0.304983 8.240932,-4.732755 -1.540112,0.904235 0.28769,-0.154625 0.822321,-0.476377 1.650406,-0.943016 2.465485,-1.431683 0.721852,-0.432774 -3.14518,1.860385 -2.186995,1.26187 0.713813,-0.408501 1.960344,-1.537755 3.096704,-1.512633 0.303409,0.01551 0.608555,0.04199 0.895258,0.15074 0.26903,0.108974 0.520559,0.263452 0.815876,0.290826 0,0 -2.296362,1.583939 -2.296362,1.583939 z"
   inkscape:connector-curvature="0" /><path
   style="color:#000000;fill:#8c1919;fill-opacity:1;fill-rule:nonzero;stroke:none;stroke-width:0.5;marker:none;visibility:visible;display:inline;overflow:visible;enable-background:accumulate"
   id="path3999"
   d="m 70.052509,36.499658 c -0.02015,0.302469 -0.01616,0.606039 -0.01581,0.909025 -0.02497,0.277572 0.03548,0.544056 0.08396,0.814622 0.04785,0.28248 0.05737,0.569201 0.06405,0.855011 0.0048,0.296506 0.0038,0.593065 0.0036,0.889597 -4.02e-4,0.296827 -5.87e-4,0.593654 -7.46e-4,0.890481 -1e-4,0.296655 -9.9e-5,0.593309 -1.04e-4,0.889964 0,0.296639 5e-6,0.593277 6e-6,0.889916 2e-6,0.296639 2e-6,0.59328 2e-6,0.889921 0,0.29664 0,0.593281 0,0.889921 -0.01887,0.302799 -0.08327,0.599943 -0.11573,0.901544 -0.03014,0.291356 -0.0238,0.584556 -0.03933,0.876635 -0.04908,0.255092 -0.09014,0.51071 -0.124864,0.768166 -0.06913,0.243467 -0.117812,0.489184 -0.142839,0.740928 0.0089,0.286316 -0.127878,0.533286 -0.225051,0.793268 -0.11878,0.227285 -0.196572,0.472255 -0.274546,0.715718 -0.0761,0.259344 -0.190609,0.509023 -0.330689,0.739927 -0.123138,0.225159 -0.240185,0.452999 -0.408338,0.64845 -0.140275,0.150412 -0.311644,0.268675 -0.489287,0.370716 -2.530865,1.453778 -1.594513,1.11892 -2.653876,1.485826 -0.236953,0.165779 -0.512105,0.210883 -0.793149,0.235537 -0.291031,0.01763 -0.582807,0.01453 -0.874224,0.01364 -0.273036,0.0083 -0.529955,-0.08703 -0.776439,-0.192077 -0.207297,-0.128026 -0.406404,-0.25639 -0.605759,-0.396846 -0.126393,-0.114759 -0.231487,-0.253128 -0.329392,-0.392633 0,0 2.389184,-1.409346 2.389184,-1.409346 l 0,0 c 0.08177,0.113706 0.16527,0.23047 0.277604,0.315939 0.180694,0.13072 0.377693,0.234304 0.573452,0.340199 0.225027,0.08638 0.463258,0.123797 0.704494,0.111582 0.285037,-0.002 0.571878,-0.002 0.853932,-0.0484 0.264819,-0.05642 0.501219,-0.169212 0.744083,-0.286077 0.896344,-0.455787 0.22577,-0.117941 -2.08108,1.214865 -0.04568,0.02639 0.08954,-0.05591 0.135727,-0.08141 0.126801,-0.06999 0.251043,-0.139499 0.371455,-0.22087 0.186461,-0.165074 0.33906,-0.352087 0.430989,-0.586468 0.129717,-0.22189 0.270147,-0.434678 0.366081,-0.676111 0.06311,-0.257523 0.145486,-0.513444 0.247903,-0.757161 0.071,-0.114326 0.09781,-0.232907 0.154638,-0.354207 0.03308,-0.0706 0.09504,-0.128388 0.114707,-0.203829 0.01212,-0.0465 0.0033,-0.09605 0.005,-0.144067 0.01435,-0.261714 0.03329,-0.526037 0.119408,-0.77579 0.08432,-0.238997 0.04871,-0.507304 0.138087,-0.748411 0.07156,-0.280938 0.01081,-0.58083 0.05114,-0.867726 0.02398,-0.295427 0.06533,-0.588248 0.127151,-0.8783 0,-0.296641 0,-0.593281 0,-0.889922 0,-0.29664 0,-0.59328 -2e-6,-0.889919 -10e-7,-0.296641 -4e-6,-0.593279 -5e-6,-0.889919 0,-0.296689 -4e-6,-0.593377 7.4e-5,-0.890064 1e-4,-0.296889 2.73e-4,-0.593779 6.92e-4,-0.890668 3.48e-4,-0.294604 0.0013,-0.589224 -0.002,-0.883816 -0.0046,-0.27224 -0.01,-0.545421 -0.04997,-0.815257 -0.0477,-0.286685 -0.123681,-0.568546 -0.09472,-0.86232 3.48e-4,-0.297605 0.0048,-0.595872 -0.01581,-0.892922 0,0 2.486352,-1.26686 2.486352,-1.26686 z"
   inkscape:connector-curvature="0" /><path
   style="color:#000000;fill:#8c1919;fill-opacity:1;fill-rule:nonzero;stroke:none;stroke-width:0.5;marker:none;visibility:visible;display:inline;overflow:visible;enable-background:accumulate"
   id="path4023"
   d="m 24.495311,55.647782 c -0.111276,0.341219 -0.142436,0.701133 -0.167774,1.057094 -0.02137,0.365225 -0.02214,0.731209 -0.02305,1.096928 -1.53e-4,0.354591 6.08e-4,0.709182 9.95e-4,1.063773 0.01435,0.364169 -0.07039,0.720737 -0.119054,1.079461 -0.0185,0.360608 -0.09045,0.712854 -0.152413,1.067462 -0.06879,0.311672 -0.159462,0.616639 -0.226193,0.929337 -0.102806,0.381169 -0.174726,0.769426 -0.260582,1.154727 -0.0827,0.364545 -0.09321,0.738739 -0.159378,1.105806 -0.07538,0.342846 -0.110865,0.691423 -0.130447,1.041284 0.01012,0.363728 -0.05372,0.719178 -0.110764,1.076408 -0.06377,0.367892 -0.176146,0.724194 -0.283748,1.080851 -0.08934,0.395019 -0.171151,0.793213 -0.243196,1.192137 -0.03589,0.368254 -0.112406,0.729237 -0.178058,1.09275 -0.06263,0.371085 -0.20207,0.721557 -0.323242,1.075955 -0.105771,0.280663 -0.242973,0.546481 -0.362016,0.821148 -0.128892,0.2818 -0.21888,0.577171 -0.379998,0.84338 -0.184253,0.159928 -0.343816,0.336896 -0.504966,0.519298 0,0 -3.0376,1.307683 -3.0376,1.307683 l 0,0 c 0.264424,-0.405749 -0.103217,0.140826 0.181305,-0.227789 0.09453,-0.122463 0.150384,-0.261247 0.305129,-0.326295 0.266445,-0.159647 0.327644,-0.471001 0.430657,-0.745699 0.133599,-0.269089 0.247719,-0.543245 0.371481,-0.816494 0.168928,-0.311419 0.249172,-0.670178 0.361535,-1.005012 0.05605,-0.367483 0.160095,-0.724473 0.183093,-1.096554 0.0655,-0.409625 0.179457,-0.808372 0.22369,-1.221359 0.09178,-0.350355 0.216275,-0.689843 0.300047,-1.042698 0.04866,-0.34904 0.143105,-0.691045 0.12508,-1.045956 0.01335,-0.363827 0.03569,-0.728364 0.110978,-1.085564 0.07805,-0.369814 0.102644,-0.741872 0.163336,-1.11507 0.08133,-0.387364 0.172335,-0.770839 0.242329,-1.159836 0.09147,-0.298305 0.09761,-0.621131 0.244122,-0.904552 0.05224,-0.353296 0.151755,-0.697305 0.157582,-1.056069 0.03824,-0.349394 0.125845,-0.693081 0.136686,-1.043145 -2.76e-4,-0.355071 -8.3e-4,-0.710144 -6.09e-4,-1.065216 8.85e-4,-0.372445 0.0019,-0.745047 0.01912,-1.117175 0.02003,-0.365697 0.05234,-0.730251 0.104014,-1.092963 0,0 3.001901,-1.438036 3.001901,-1.438036 z"
   inkscape:connector-curvature="0" /><path
   style="color:#000000;fill:#8c1919;fill-opacity:1;fill-rule:nonzero;stroke:none;stroke-width:0.5;marker:none;visibility:visible;display:inline;overflow:visible;enable-background:accumulate"
   id="path4025"
   d="m 32.834951,58.292067 c -0.04886,0.02316 -0.0969,0.04812 -0.146573,0.06949 -0.249646,0.107401 -0.155928,0.04648 -0.406565,0.183188 -0.07226,0.03941 -0.284099,0.166345 -0.212684,0.12543 2.603359,-1.491503 3.409101,-2.023005 2.362159,-1.33989 -0.416071,0.305551 -0.854012,0.581091 -1.264685,0.893766 -0.29942,0.235968 -0.561104,0.510593 -0.790857,0.813871 -0.201277,0.334469 -0.447307,0.63025 -0.718597,0.909601 -0.287076,0.256582 -0.581031,0.505028 -0.868607,0.761019 -0.275509,0.28704 -0.551369,0.576336 -0.749711,0.923135 -0.153438,0.313868 -0.309786,0.626996 -0.482451,0.930783 -0.205414,0.29282 -0.318731,0.618275 -0.3787,0.96738 -0.02898,0.357735 -0.05273,0.712318 -0.11263,1.066661 -0.04909,0.332063 -0.07768,0.663341 -0.158038,0.989738 -0.08091,0.308071 -0.101701,0.626038 -0.115419,0.942824 -0.01093,0.350043 -0.0097,0.700319 -0.0095,1.05049 -0.02562,0.352286 0.04219,0.69565 0.0962,1.041404 0.04296,0.329762 0.19996,0.616587 0.346678,0.908529 0.148297,0.274624 0.25579,0.56524 0.378379,0.851071 0.08965,0.221774 0.228938,0.426065 0.401556,0.591569 0.148759,0.204247 0.341283,0.340594 0.550123,0.473742 0.289856,0.131753 0.608344,0.180074 0.915537,0.260617 0.34123,0.08262 0.692619,0.09806 1.041999,0.108096 0.352991,0.0066 0.706072,0.0045 1.059104,0.0037 0.396581,0.02552 0.78224,-0.07316 1.173668,-0.12289 0.127264,-0.03087 0.260911,-0.01 0.388803,-0.03376 0.159345,-0.02966 0.296532,-0.133042 0.440644,-0.201322 -0.900858,0.512641 -1.801714,1.025282 -2.702571,1.537923 0.234367,-0.13812 0.443913,-0.30683 0.670351,-0.456922 0.195926,-0.146233 0.254604,-0.340909 0.33524,-0.561903 0.114969,-0.290376 0.177117,-0.597275 0.276291,-0.892302 0.10942,-0.259775 0.24504,-0.495399 0.308511,-0.772911 0.05675,-0.328605 0.05688,-0.663419 0.05999,-0.995864 0.002,-0.347771 0.01374,-0.694138 -0.03864,-1.038677 -0.02738,-0.307186 -0.110313,-0.585499 -0.254567,-0.855199 -0.159276,-0.238271 -0.354049,-0.440089 -0.549972,-0.646716 -0.23699,-0.192741 -0.470891,-0.400341 -0.748829,-0.531615 -0.278574,-0.136929 -0.563166,-0.27583 -0.859247,-0.37283 -0.242525,-0.164585 -0.514492,-0.216215 -0.799926,-0.243895 -0.335036,-0.02312 -0.671167,-0.02068 -1.006803,-0.02049 -0.294446,0.02113 -0.571991,-0.0045 -0.857591,-0.07134 0,0 2.709713,-1.890197 2.709713,-1.890197 l 0,0 c 0.269628,0.04088 0.541419,0.02311 0.81345,0.02626 0.347101,0.0025 0.695936,0.003 1.04008,0.05401 0.298448,0.05677 0.573423,0.16015 0.842188,0.301739 0.299574,0.127272 0.600047,0.255825 0.885294,0.412978 0.284725,0.178414 0.55358,0.387273 0.797685,0.618034 0.218956,0.226078 0.437398,0.451934 0.605867,0.720119 0.158259,0.302372 0.261534,0.613236 0.291301,0.956039 0.06528,0.36162 0.07924,0.719984 0.06579,1.087727 -1.73e-4,0.346878 0.0019,0.694504 -0.02849,1.040365 -0.03483,0.293552 -0.08123,0.591968 -0.282976,0.822472 -0.03346,0.09173 -0.08182,0.178045 -0.109688,0.271631 -0.05866,0.196987 -0.0615,0.413777 -0.167116,0.597349 -0.02557,0.123256 -0.07835,0.225935 -0.111217,0.343179 -0.03999,0.142651 -0.01011,0.279302 -0.158886,0.367643 -0.09608,0.146815 -0.159017,0.181626 -0.305504,0.266602 -0.131641,0.07636 -0.198718,0.213772 -0.342483,0.272479 -2.144838,1.229402 -2.188181,1.687587 -3.838043,1.855228 -0.400595,0.05647 -0.800552,0.113757 -1.206738,0.09329 -0.356058,-5.8e-5 -0.712349,9.4e-4 -1.068077,-0.01661 -0.364723,-0.02338 -0.728614,-0.06406 -1.081321,-0.164722 -0.33625,-0.08784 -0.686098,-0.141705 -0.98274,-0.336788 -0.232208,-0.143931 -0.423918,-0.330428 -0.599678,-0.539226 -0.186107,-0.207703 -0.356122,-0.435092 -0.456076,-0.697785 -0.118549,-0.27999 -0.213711,-0.568642 -0.358978,-0.837718 -0.163063,-0.322806 -0.330932,-0.640787 -0.393488,-1.002292 -0.0518,-0.360801 -0.145357,-0.717018 -0.119286,-1.084236 -6.09e-4,-0.353065 -0.0021,-0.706156 0.0026,-1.0592 0.007,-0.333993 0.01489,-0.670005 0.07904,-0.998946 0.07444,-0.324941 0.168163,-0.637177 0.17756,-0.974681 0.05875,-0.352527 0.122398,-0.697941 0.116208,-1.057619 0.04107,-0.383475 0.115035,-0.761766 0.324735,-1.093254 0.192341,-0.286146 0.323452,-0.60301 0.497869,-0.899505 0.15985,-0.396117 0.419524,-0.708587 0.706429,-1.021444 0.253435,-0.295917 0.578468,-0.520076 0.86342,-0.782957 0.296138,-0.227874 0.563509,-0.516468 0.743521,-0.84485 0.226287,-0.322264 0.455059,-0.651633 0.774308,-0.890311 0.381315,-0.360777 0.848836,-0.605085 1.262502,-0.925975 1.241706,-0.935451 2.64789,-1.62375 4.036193,-2.311762 0,0 -2.59705,2.077394 -2.59705,2.077394 z"
   inkscape:connector-curvature="0" /><path
   style="fill:url(#linearGradient3943)"
   d="m 1.3125,0.3125 c -0.68629213,0.11155171 -1,0.60641445 -1,1.25 0,0 0.0274567,39.202724 0,41.5 C 0.04653403,65.303441 17.834097,85.753786 43,85.6875 66.583,85.6875 85.6875,66.582 85.6875,43 l 0,-41.28125 c 0,-0.786 -0.62025,-1.40625 -1.40625,-1.40625 l -82.65625,0 c -0.1131579,0 -0.2144583,-0.015936 -0.3125,0 z m 9,10 56.375,0 c 5.623375,-0.07315 9.107937,4.708291 9,9.6875 0.03503,20.264517 0.382625,32.89491 -6.889103,43.225294 C 58.303544,78.134524 34.564063,80.752503 20.875,67.3125 8.1160287,54.785666 10.207474,41.649563 10.3125,25.4375 z"
   id="path3937"
   inkscape:connector-curvature="0"
   sodipodi:nodetypes="scscssssscccsscc" /><path
   sodipodi:type="arc"
   style="color:#000000;fill:#8c1919;fill-opacity:1;fill-rule:nonzero;stroke:none;stroke-width:0.50000000000000000;marker:none;visibility:visible;display:inline;overflow:visible;enable-background:accumulate"
   id="path4005"
   sodipodi:cx="17.12315"
   sodipodi:cy="10.626139"
   sodipodi:rx="7.5213833"
   sodipodi:ry="7.5213833"
   d="m 24.644533,10.626139 a 7.5213833,7.5213833 0 1 1 -15.0427664,0 7.5213833,7.5213833 0 1 1 15.0427664,0 z"
   transform="translate(4.1607652,2.3200589)" /><path
   transform="translate(24.160765,2.3200589)"
   d="m 24.644533,10.626139 a 7.5213833,7.5213833 0 1 1 -15.0427664,0 7.5213833,7.5213833 0 1 1 15.0427664,0 z"
   sodipodi:ry="7.5213833"
   sodipodi:rx="7.5213833"
   sodipodi:cy="10.626139"
   sodipodi:cx="17.12315"
   id="path4007"
   style="color:#000000;fill:#8c1919;fill-opacity:1;fill-rule:nonzero;stroke:none;stroke-width:0.50000000000000000;marker:none;visibility:visible;display:inline;overflow:visible;enable-background:accumulate"
   sodipodi:type="arc" /><path
   sodipodi:type="arc"
   style="color:#000000;fill:#8c1919;fill-opacity:1;fill-rule:nonzero;stroke:none;stroke-width:0.50000000000000000;marker:none;visibility:visible;display:inline;overflow:visible;enable-background:accumulate"
   id="path4009"
   sodipodi:cx="17.12315"
   sodipodi:cy="10.626139"
   sodipodi:rx="7.5213833"
   sodipodi:ry="7.5213833"
   d="m 24.644533,10.626139 a 7.5213833,7.5213833 0 1 1 -15.0427664,0 7.5213833,7.5213833 0 1 1 15.0427664,0 z"
   transform="translate(44.160765,2.3200589)" /></svg>